<?xml version="1.0" standalone="no"?>
<!DOCTYPE svg PUBLIC "-//W3C//DTD SVG 20010904//EN"
 "http://www.w3.org/TR/2001/REC-SVG-20010904/DTD/svg10.dtd">
<svg version="1.0" xmlns="http://www.w3.org/2000/svg"
 width="500.000000pt" height="500.000000pt" viewBox="0 0 500.000000 500.000000"
 preserveAspectRatio="xMidYMid meet">
<metadata>
Created by potrace 1.16, written by Peter Selinger 2001-2019
</metadata>
<g transform="translate(0.000000,500.000000) scale(0.100000,-0.100000)"
fill="#000000" stroke="none">
<path d="M0 2500 l0 -2500 2500 0 2500 0 0 2500 0 2500 -2500 0 -2500 0 0
-2500z m2333 486 c-2 -74 -52 -167 -110 -205 -40 -27 -55 -31 -115 -31 l-68 0
0 33 c0 143 119 261 255 254 l40 -2 -2 -49z m-695 -225 c5 -29 -15 -51 -45
-51 -13 0 -33 -5 -45 -11 -19 -11 -19 -12 13 -45 32 -33 34 -39 34 -104 0 -64
-2 -72 -30 -100 -47 -46 -124 -55 -222 -25 -20 6 -23 4 -23 -18 0 -46 22 -57
121 -57 101 0 145 -14 177 -55 46 -59 17 -161 -56 -192 -108 -48 -344 6 -318
72 11 29 37 28 98 -4 96 -49 188 -41 188 18 0 40 -14 48 -101 54 -93 6 -136
27 -155 72 -19 46 -18 74 5 117 15 31 17 44 8 76 -24 90 20 164 108 182 30 6
64 9 75 5 15 -5 22 1 33 27 24 56 68 82 112 68 11 -4 21 -17 23 -29z m1946 -7
c3 -9 6 -26 6 -39 0 -21 5 -24 43 -27 37 -3 42 -6 42 -28 0 -22 -5 -25 -42
-28 l-43 -3 0 -133 c0 -104 3 -136 14 -146 20 -16 57 -9 67 13 5 9 13 25 18
35 4 9 17 17 27 17 33 0 31 -57 -3 -95 -54 -60 -170 -48 -213 22 -17 29 -20
50 -20 161 l0 127 -24 0 c-13 0 -26 -6 -29 -14 -3 -7 -24 -16 -47 -20 -24 -4
-51 -11 -61 -17 -33 -17 -52 -69 -53 -147 -1 -66 1 -75 23 -91 16 -12 22 -24
18 -35 -5 -13 -23 -16 -97 -16 -104 0 -121 13 -76 55 25 23 26 28 26 134 0 86
-3 113 -16 125 -8 9 -20 16 -25 16 -5 0 -9 9 -9 19 0 19 8 22 117 56 19 6 43
-24 43 -53 l0 -26 16 22 c24 34 67 52 125 50 74 -2 93 6 112 47 18 37 50 47
61 19z m-1459 -84 c6 -18 7 -18 39 1 59 35 152 25 187 -19 19 -24 21 -25 30
-9 24 42 137 65 189 37 47 -25 60 -66 60 -196 0 -116 1 -121 25 -142 41 -36
24 -52 -55 -52 -53 0 -69 4 -74 16 -3 9 -6 80 -6 159 0 157 -6 175 -58 175
-63 -1 -82 -41 -82 -174 0 -95 2 -107 20 -118 11 -7 20 -23 20 -36 0 -22 -3
-23 -72 -20 l-73 3 -3 155 c-2 125 -6 157 -19 172 -23 26 -69 23 -98 -7 -24
-23 -25 -30 -25 -143 0 -112 1 -121 22 -134 14 -9 19 -20 15 -31 -5 -14 -21
-17 -97 -17 -104 0 -121 13 -76 55 25 23 26 28 26 134 0 110 -6 131 -42 144
-26 9 9 42 63 58 60 18 76 16 84 -11z m857 4 c59 -30 68 -56 68 -186 0 -115 1
-120 26 -143 40 -37 26 -55 -41 -55 -42 0 -60 5 -75 20 l-20 20 -31 -22 c-45
-34 -147 -33 -183 1 -34 32 -42 78 -22 125 18 43 69 70 154 81 63 8 84 26 80
68 -7 67 -101 76 -123 12 -15 -45 -24 -55 -49 -55 -65 0 -60 95 7 132 53 29
154 30 209 2z m-1054 -83 c8 -5 12 -17 10 -27 -3 -17 -15 -19 -141 -22 -116
-2 -138 0 -143 13 -14 36 13 45 140 45 66 0 127 -4 134 -9z"/>
<path d="M1399 2623 c-9 -9 -14 -40 -14 -75 0 -47 4 -63 19 -74 51 -37 96 -1
96 76 0 25 -7 56 -16 68 -18 26 -65 30 -85 5z"/>
<path d="M2865 2459 c-44 -10 -65 -31 -65 -65 0 -32 26 -54 65 -54 44 0 75 38
75 91 0 43 -3 44 -75 28z"/>
</g>
</svg>
