<svg version="1.1" id="Layer_1" xmlns="http://www.w3.org/2000/svg" xmlns:xlink="http://www.w3.org/1999/xlink" x="0px" y="0px"
	 width="100%" viewBox="0 0 500 500" enable-background="new 0 0 500 500" xml:space="preserve">
<path fill="#004D3D" opacity="1.000000" stroke="none" 
	d="
M280.000000,501.000000 
	C186.666687,501.000000 93.833374,501.000000 1.000050,501.000000 
	C1.000033,334.333405 1.000033,167.666794 1.000017,1.000139 
	C167.666565,1.000093 334.333130,1.000093 500.999756,1.000046 
	C500.999847,167.666519 500.999847,334.333038 500.999939,500.999786 
	C427.500000,501.000000 354.000000,501.000000 280.000000,501.000000 
M208.396774,242.500763 
	C208.350189,253.499222 208.241776,264.497925 208.282730,275.496063 
	C208.303665,281.119934 210.221588,282.943390 215.816528,282.996094 
	C221.148788,283.046326 226.512756,283.333923 231.798828,282.836823 
	C233.796722,282.648956 236.763245,280.858368 237.187698,279.245575 
	C237.598312,277.685303 235.781326,274.538300 234.107513,273.633575 
	C230.362976,271.609589 228.793884,268.942993 228.832809,264.856903 
	C228.928070,254.859238 228.669907,244.851349 229.055191,234.866913 
	C229.198456,231.154175 230.202393,227.249741 231.754059,223.863586 
	C234.885101,217.030731 241.848999,214.224304 249.397583,216.049805 
	C254.820877,217.361359 257.048767,221.217712 257.048065,229.459991 
	C257.046753,244.958252 257.043335,260.456665 256.968811,275.954651 
	C256.950348,279.794067 258.208008,282.737762 262.366516,282.903931 
	C268.854736,283.163177 275.373749,283.177856 281.850372,282.796753 
	C283.308990,282.710907 285.610931,280.697845 285.794464,279.338348 
	C286.021240,277.658875 284.883484,274.642273 283.564667,274.108887 
	C278.182617,271.932129 277.285431,267.802948 277.272736,262.833740 
	C277.241669,250.670837 277.393005,238.497360 276.932251,226.348572 
	C276.491791,214.734695 269.682220,207.549881 258.254791,205.820755 
	C245.446198,203.882645 234.621323,206.989426 227.157089,219.019974 
	C222.864975,208.781479 214.635925,205.627060 204.890060,205.256653 
	C195.317154,204.892838 186.959915,207.793716 180.108490,216.288315 
	C180.108490,214.184082 180.130722,213.230011 180.104919,212.277206 
	C179.930527,205.840637 177.906708,204.245148 171.646347,205.934891 
	C165.869202,207.494171 160.063934,209.043701 154.472549,211.135925 
	C152.915497,211.718567 151.314957,214.137756 151.146118,215.853333 
	C151.013535,217.200577 152.757233,219.522171 154.188156,220.083527 
	C158.258591,221.680374 159.792725,224.516052 159.796082,228.562622 
	C159.806061,240.561234 159.812363,252.559845 159.795364,264.558441 
	C159.789474,268.717072 158.215912,271.687347 154.265701,273.796631 
	C152.635422,274.667175 151.132141,277.729645 151.387665,279.538574 
	C151.580383,280.903046 154.628326,282.772522 156.465424,282.842529 
	C165.451385,283.184967 174.466690,283.214203 183.449051,282.828522 
	C185.365341,282.746246 188.350204,280.747131 188.722519,279.139954 
	C189.085907,277.571259 187.183441,274.581787 185.482422,273.622223 
	C182.206406,271.774170 180.229309,269.436493 180.208008,265.821777 
	C180.145203,255.159775 179.924835,244.476425 180.523331,233.844055 
	C180.755615,229.717316 182.407532,225.355133 184.495010,221.722046 
	C187.631470,216.263275 194.939545,214.266800 201.325058,216.159378 
	C206.135422,217.585114 208.313309,221.262466 208.447983,228.503052 
	C208.528549,232.833939 208.424240,237.168259 208.396774,242.500763 
M73.068977,318.674988 
	C73.948311,318.204132 74.839096,317.753326 75.705215,317.259308 
	C85.299171,311.787262 88.290604,303.071777 87.417664,292.694153 
	C86.539406,282.253143 80.262627,276.022095 70.558342,273.462585 
	C65.808090,272.209686 60.703045,272.127289 55.740776,271.894531 
	C48.597191,271.559479 41.365627,272.152710 34.303108,271.282501 
	C25.924896,270.250183 23.053268,262.401489 28.033558,255.147278 
	C36.921982,260.658112 46.688450,261.495789 56.816238,260.067352 
	C69.979805,258.210785 78.243988,250.218246 79.660629,237.472504 
	C81.047218,224.997055 78.065132,214.284637 65.996826,207.933243 
	C69.625969,202.267609 75.271233,202.209106 80.650436,201.353683 
	C85.749214,200.542877 87.618538,198.085327 87.323700,193.196014 
	C87.050690,188.668686 84.389030,186.259979 79.403976,186.028946 
	C71.673454,185.670670 64.755928,190.353043 61.243542,198.467972 
	C60.204578,200.868332 59.464367,203.397995 58.815002,205.226959 
	C54.003632,205.226959 49.679581,204.979538 45.391678,205.268509 
	C23.274641,206.758987 12.016185,225.409821 20.935118,245.850632 
	C21.997143,248.284622 22.058624,249.730011 20.263824,251.946594 
	C13.942144,259.753876 13.071902,268.724304 16.818884,277.779999 
	C20.509365,286.699127 28.189131,290.474670 37.435249,291.116058 
	C44.404953,291.599579 51.423851,291.412109 58.384892,291.971100 
	C64.908165,292.494934 67.743759,296.310364 67.153526,302.811432 
	C66.673386,308.099884 62.982136,311.337891 56.513458,312.047638 
	C45.806274,313.222412 36.069378,310.571259 27.154413,304.599884 
	C24.953489,303.125671 22.713951,301.594849 20.282207,300.606812 
	C16.825661,299.202423 14.104958,300.802673 12.190072,303.726898 
	C10.268299,306.661652 10.555023,309.683167 13.319522,311.741913 
	C16.489721,314.102753 19.869539,316.440948 23.520327,317.852905 
	C39.611324,324.076019 55.945309,324.442871 73.068977,318.674988 
M377.453705,209.969711 
	C376.815521,210.154602 376.003571,210.152878 375.569427,210.556976 
	C373.768494,212.233414 371.175629,213.818939 370.693268,215.866531 
	C370.404785,217.091064 373.702362,218.958237 374.999359,220.808945 
	C376.676361,223.201950 379.128235,225.824295 379.223145,228.421814 
	C379.666687,240.563248 379.418121,252.730133 379.408386,264.887909 
	C379.405182,268.896973 377.805847,271.650360 374.048309,273.660278 
	C372.365051,274.560669 370.524414,277.687256 370.921478,279.255005 
	C371.327026,280.856293 374.345764,282.756958 376.293549,282.841370 
	C385.104248,283.223267 393.941010,282.976318 402.767975,283.026764 
	C405.724213,283.043701 408.627289,282.284027 408.566254,279.065063 
	C408.529816,277.140198 406.341064,275.231995 405.054840,273.360901 
	C403.377991,270.921600 400.382660,268.634155 400.164429,266.091705 
	C399.569580,259.161804 399.633240,252.080200 400.349884,245.153229 
	C401.730316,231.810089 409.524750,224.733994 422.994507,223.918961 
	C428.036774,223.613861 432.092438,222.100830 433.264008,217.187042 
	C436.303650,217.187042 438.733032,217.187042 441.429718,217.187042 
	C441.429718,222.522232 441.382599,227.501526 441.439606,232.479645 
	C441.554047,242.467041 441.396271,252.472366 441.959015,262.435944 
	C442.617310,274.092194 449.435425,281.747711 460.826538,283.629333 
	C465.511078,284.403168 470.523407,284.384399 475.218933,283.651520 
	C484.948486,282.132965 490.216858,276.039734 491.463043,266.123627 
	C491.907684,262.585541 492.073944,259.261566 487.234497,258.766113 
	C482.762939,258.308350 481.149323,260.370728 480.751770,264.781464 
	C480.072937,272.313385 473.701019,275.946930 467.163086,272.884125 
	C462.763977,270.823273 461.854706,266.782196 461.845398,262.420258 
	C461.815582,248.430038 461.815369,234.439728 461.829437,220.449463 
	C461.830566,219.351288 462.029724,218.253296 462.160248,216.915344 
	C466.277161,216.915344 470.087219,216.867081 473.895447,216.929474 
	C477.414978,216.987137 480.324554,216.305008 480.401703,211.967972 
	C480.483459,207.371445 477.470734,206.560684 473.735901,206.610901 
	C469.940613,206.661942 466.144043,206.622177 461.793945,206.622177 
	C461.793945,202.771408 462.345123,199.185318 461.597717,195.894089 
	C461.109741,193.745270 458.952209,190.780655 457.147095,190.468567 
	C455.410858,190.168381 452.765625,192.473526 451.259979,194.258362 
	C449.834503,195.948181 449.563690,198.556366 448.443665,200.570847 
	C445.923950,205.103012 434.595886,208.804321 429.845886,207.640686 
	C425.989197,206.695908 421.696594,206.319183 417.809113,206.965103 
	C409.823029,208.292068 404.849762,214.179474 399.950592,221.699219 
	C399.950592,217.577545 399.998413,214.799332 399.940674,212.023315 
	C399.817932,206.123444 397.456818,204.315445 391.609863,205.847549 
	C387.111481,207.026291 382.680237,208.461014 377.453705,209.969711 
M357.137695,220.569962 
	C355.007172,215.164658 351.137360,211.276642 345.903625,209.095657 
	C333.572266,203.956955 320.916534,203.344604 308.433746,208.303162 
	C300.715210,211.369217 295.416992,216.956543 294.869202,225.828110 
	C294.521851,231.453583 297.132843,234.091293 303.257935,234.589905 
	C308.805878,235.041534 312.088318,232.604752 312.818085,227.492645 
	C314.138641,218.241974 318.928528,214.633179 328.288361,215.837128 
	C334.346497,216.616364 338.185822,220.424698 338.672546,226.137512 
	C339.193054,232.246643 336.080139,236.912552 330.112671,238.511642 
	C327.233124,239.283264 324.175995,239.385574 321.288269,240.134262 
	C314.093536,241.999603 306.518494,243.148407 299.894958,246.276337 
	C291.642761,250.173401 288.459167,260.362213 290.810272,270.088715 
	C292.806671,278.347931 299.109039,283.322510 308.680115,284.078400 
	C320.026672,284.974518 330.571564,283.325958 338.562561,273.961487 
	C341.453247,281.091583 344.214325,282.973633 351.526093,283.004547 
	C355.191833,283.020050 358.915985,283.384796 362.499939,282.841309 
	C364.414703,282.550964 367.390289,280.820068 367.550507,279.463348 
	C367.766235,277.636810 366.214050,274.610260 364.560883,273.748962 
	C360.389862,271.575836 358.917847,268.502411 358.950684,264.091370 
	C359.031311,253.261124 359.094360,242.427719 358.903320,231.600204 
	C358.842560,228.156815 357.958923,224.727936 357.137695,220.569962 
M200.178802,153.514053 
	C177.678665,159.563690 169.649536,179.671875 170.032333,198.029617 
	C170.059387,199.327103 171.400223,201.688522 172.187256,201.712921 
	C181.879791,202.013519 191.644608,203.670349 200.675385,197.685715 
	C215.807419,187.657898 219.109497,171.621063 222.855392,155.758423 
	C223.042694,154.965286 220.861328,152.682205 219.766037,152.670532 
	C213.502640,152.603775 207.234146,153.014984 200.178802,153.514053 
M107.510971,234.756821 
	C118.321541,234.752136 129.132248,234.775757 139.942612,234.725449 
	C143.173325,234.710403 145.474503,233.320755 145.568893,229.770203 
	C145.668243,226.032928 143.472610,224.290741 139.950470,224.280884 
	C125.148865,224.239441 110.346748,224.235123 95.545486,224.325378 
	C92.304184,224.345154 90.126472,226.005951 90.119240,229.518417 
	C90.111984,233.043503 92.280907,234.583908 95.542084,234.689926 
	C99.197319,234.808716 102.858566,234.742523 107.510971,234.756821 
z"/>
<path fill="#FBF3E4" opacity="1.000000" stroke="none" 
	d="
M208.399902,242.000900 
	C208.424240,237.168259 208.528549,232.833939 208.447983,228.503052 
	C208.313309,221.262466 206.135422,217.585114 201.325058,216.159378 
	C194.939545,214.266800 187.631470,216.263275 184.495010,221.722046 
	C182.407532,225.355133 180.755615,229.717316 180.523331,233.844055 
	C179.924835,244.476425 180.145203,255.159775 180.208008,265.821777 
	C180.229309,269.436493 182.206406,271.774170 185.482422,273.622223 
	C187.183441,274.581787 189.085907,277.571259 188.722519,279.139954 
	C188.350204,280.747131 185.365341,282.746246 183.449051,282.828522 
	C174.466690,283.214203 165.451385,283.184967 156.465424,282.842529 
	C154.628326,282.772522 151.580383,280.903046 151.387665,279.538574 
	C151.132141,277.729645 152.635422,274.667175 154.265701,273.796631 
	C158.215912,271.687347 159.789474,268.717072 159.795364,264.558441 
	C159.812363,252.559845 159.806061,240.561234 159.796082,228.562622 
	C159.792725,224.516052 158.258591,221.680374 154.188156,220.083527 
	C152.757233,219.522171 151.013535,217.200577 151.146118,215.853333 
	C151.314957,214.137756 152.915497,211.718567 154.472549,211.135925 
	C160.063934,209.043701 165.869202,207.494171 171.646347,205.934891 
	C177.906708,204.245148 179.930527,205.840637 180.104919,212.277206 
	C180.130722,213.230011 180.108490,214.184082 180.108490,216.288315 
	C186.959915,207.793716 195.317154,204.892838 204.890060,205.256653 
	C214.635925,205.627060 222.864975,208.781479 227.157089,219.019974 
	C234.621323,206.989426 245.446198,203.882645 258.254791,205.820755 
	C269.682220,207.549881 276.491791,214.734695 276.932251,226.348572 
	C277.393005,238.497360 277.241669,250.670837 277.272736,262.833740 
	C277.285431,267.802948 278.182617,271.932129 283.564667,274.108887 
	C284.883484,274.642273 286.021240,277.658875 285.794464,279.338348 
	C285.610931,280.697845 283.308990,282.710907 281.850372,282.796753 
	C275.373749,283.177856 268.854736,283.163177 262.366516,282.903931 
	C258.208008,282.737762 256.950348,279.794067 256.968811,275.954651 
	C257.043335,260.456665 257.046753,244.958252 257.048065,229.459991 
	C257.048767,221.217712 254.820877,217.361359 249.397583,216.049805 
	C241.848999,214.224304 234.885101,217.030731 231.754059,223.863586 
	C230.202393,227.249741 229.198456,231.154175 229.055191,234.866913 
	C228.669907,244.851349 228.928070,254.859238 228.832809,264.856903 
	C228.793884,268.942993 230.362976,271.609589 234.107513,273.633575 
	C235.781326,274.538300 237.598312,277.685303 237.187698,279.245575 
	C236.763245,280.858368 233.796722,282.648956 231.798828,282.836823 
	C226.512756,283.333923 221.148788,283.046326 215.816528,282.996094 
	C210.221588,282.943390 208.303665,281.119934 208.282730,275.496063 
	C208.241776,264.497925 208.350189,253.499222 208.399902,242.000900 
z"/>
<path fill="#FAF3E4" opacity="1.000000" stroke="none" 
	d="
M72.711578,318.808655 
	C55.945309,324.442871 39.611324,324.076019 23.520327,317.852905 
	C19.869539,316.440948 16.489721,314.102753 13.319522,311.741913 
	C10.555023,309.683167 10.268299,306.661652 12.190072,303.726898 
	C14.104958,300.802673 16.825661,299.202423 20.282207,300.606812 
	C22.713951,301.594849 24.953489,303.125671 27.154413,304.599884 
	C36.069378,310.571259 45.806274,313.222412 56.513458,312.047638 
	C62.982136,311.337891 66.673386,308.099884 67.153526,302.811432 
	C67.743759,296.310364 64.908165,292.494934 58.384892,291.971100 
	C51.423851,291.412109 44.404953,291.599579 37.435249,291.116058 
	C28.189131,290.474670 20.509365,286.699127 16.818884,277.779999 
	C13.071902,268.724304 13.942144,259.753876 20.263824,251.946594 
	C22.058624,249.730011 21.997143,248.284622 20.935118,245.850632 
	C12.016185,225.409821 23.274641,206.758987 45.391678,205.268509 
	C49.679581,204.979538 54.003632,205.226959 58.815002,205.226959 
	C59.464367,203.397995 60.204578,200.868332 61.243542,198.467972 
	C64.755928,190.353043 71.673454,185.670670 79.403976,186.028946 
	C84.389030,186.259979 87.050690,188.668686 87.323700,193.196014 
	C87.618538,198.085327 85.749214,200.542877 80.650436,201.353683 
	C75.271233,202.209106 69.625969,202.267609 65.996826,207.933243 
	C78.065132,214.284637 81.047218,224.997055 79.660629,237.472504 
	C78.243988,250.218246 69.979805,258.210785 56.816238,260.067352 
	C46.688450,261.495789 36.921982,260.658112 28.033558,255.147278 
	C23.053268,262.401489 25.924896,270.250183 34.303108,271.282501 
	C41.365627,272.152710 48.597191,271.559479 55.740776,271.894531 
	C60.703045,272.127289 65.808090,272.209686 70.558342,273.462585 
	C80.262627,276.022095 86.539406,282.253143 87.417664,292.694153 
	C88.290604,303.071777 85.299171,311.787262 75.705215,317.259308 
	C74.839096,317.753326 73.948311,318.204132 72.711578,318.808655 
M53.918736,249.736923 
	C55.852448,247.371582 59.142078,245.171036 59.453499,242.608536 
	C60.238068,236.152802 60.313896,229.449783 59.459526,223.006897 
	C58.774223,217.838959 54.515690,215.395523 49.257545,215.336868 
	C43.996605,215.278198 40.099426,217.598663 39.021530,222.908325 
	C37.984455,228.016922 37.693489,233.424423 38.044586,238.635239 
	C38.682148,248.097839 43.758381,251.623108 53.918736,249.736923 
z"/>
<path fill="#F9F2E3" opacity="1.000000" stroke="none" 
	d="
M377.836426,209.875809 
	C382.680237,208.461014 387.111481,207.026291 391.609863,205.847549 
	C397.456818,204.315445 399.817932,206.123444 399.940674,212.023315 
	C399.998413,214.799332 399.950592,217.577545 399.950592,221.699219 
	C404.849762,214.179474 409.823029,208.292068 417.809113,206.965103 
	C421.696594,206.319183 425.989197,206.695908 429.845886,207.640686 
	C434.595886,208.804321 445.923950,205.103012 448.443665,200.570847 
	C449.563690,198.556366 449.834503,195.948181 451.259979,194.258362 
	C452.765625,192.473526 455.410858,190.168381 457.147095,190.468567 
	C458.952209,190.780655 461.109741,193.745270 461.597717,195.894089 
	C462.345123,199.185318 461.793945,202.771408 461.793945,206.622177 
	C466.144043,206.622177 469.940613,206.661942 473.735901,206.610901 
	C477.470734,206.560684 480.483459,207.371445 480.401703,211.967972 
	C480.324554,216.305008 477.414978,216.987137 473.895447,216.929474 
	C470.087219,216.867081 466.277161,216.915344 462.160248,216.915344 
	C462.029724,218.253296 461.830566,219.351288 461.829437,220.449463 
	C461.815369,234.439728 461.815582,248.430038 461.845398,262.420258 
	C461.854706,266.782196 462.763977,270.823273 467.163086,272.884125 
	C473.701019,275.946930 480.072937,272.313385 480.751770,264.781464 
	C481.149323,260.370728 482.762939,258.308350 487.234497,258.766113 
	C492.073944,259.261566 491.907684,262.585541 491.463043,266.123627 
	C490.216858,276.039734 484.948486,282.132965 475.218933,283.651520 
	C470.523407,284.384399 465.511078,284.403168 460.826538,283.629333 
	C449.435425,281.747711 442.617310,274.092194 441.959015,262.435944 
	C441.396271,252.472366 441.554047,242.467041 441.439606,232.479645 
	C441.382599,227.501526 441.429718,222.522232 441.429718,217.187042 
	C438.733032,217.187042 436.303650,217.187042 433.264008,217.187042 
	C432.092438,222.100830 428.036774,223.613861 422.994507,223.918961 
	C409.524750,224.733994 401.730316,231.810089 400.349884,245.153229 
	C399.633240,252.080200 399.569580,259.161804 400.164429,266.091705 
	C400.382660,268.634155 403.377991,270.921600 405.054840,273.360901 
	C406.341064,275.231995 408.529816,277.140198 408.566254,279.065063 
	C408.627289,282.284027 405.724213,283.043701 402.767975,283.026764 
	C393.941010,282.976318 385.104248,283.223267 376.293549,282.841370 
	C374.345764,282.756958 371.327026,280.856293 370.921478,279.255005 
	C370.524414,277.687256 372.365051,274.560669 374.048309,273.660278 
	C377.805847,271.650360 379.405182,268.896973 379.408386,264.887909 
	C379.418121,252.730133 379.666687,240.563248 379.223145,228.421814 
	C379.128235,225.824295 376.676361,223.201950 374.999359,220.808945 
	C373.702362,218.958237 370.404785,217.091064 370.693268,215.866531 
	C371.175629,213.818939 373.768494,212.233414 375.569427,210.556976 
	C376.003571,210.152878 376.815521,210.154602 377.836426,209.875809 
z"/>
<path fill="#FBF3E4" opacity="1.000000" stroke="none" 
	d="
M357.294769,220.931183 
	C357.958923,224.727936 358.842560,228.156815 358.903320,231.600204 
	C359.094360,242.427719 359.031311,253.261124 358.950684,264.091370 
	C358.917847,268.502411 360.389862,271.575836 364.560883,273.748962 
	C366.214050,274.610260 367.766235,277.636810 367.550507,279.463348 
	C367.390289,280.820068 364.414703,282.550964 362.499939,282.841309 
	C358.915985,283.384796 355.191833,283.020050 351.526093,283.004547 
	C344.214325,282.973633 341.453247,281.091583 338.562561,273.961487 
	C330.571564,283.325958 320.026672,284.974518 308.680115,284.078400 
	C299.109039,283.322510 292.806671,278.347931 290.810272,270.088715 
	C288.459167,260.362213 291.642761,250.173401 299.894958,246.276337 
	C306.518494,243.148407 314.093536,241.999603 321.288269,240.134262 
	C324.175995,239.385574 327.233124,239.283264 330.112671,238.511642 
	C336.080139,236.912552 339.193054,232.246643 338.672546,226.137512 
	C338.185822,220.424698 334.346497,216.616364 328.288361,215.837128 
	C318.928528,214.633179 314.138641,218.241974 312.818085,227.492645 
	C312.088318,232.604752 308.805878,235.041534 303.257935,234.589905 
	C297.132843,234.091293 294.521851,231.453583 294.869202,225.828110 
	C295.416992,216.956543 300.715210,211.369217 308.433746,208.303162 
	C320.916534,203.344604 333.572266,203.956955 345.903625,209.095657 
	C351.137360,211.276642 355.007172,215.164658 357.294769,220.931183 
M310.366669,263.428955 
	C310.562439,268.385986 312.611816,272.080353 317.555878,273.659424 
	C325.463074,276.184906 334.065552,272.401581 336.584259,264.449524 
	C338.298096,259.038696 338.544891,253.163223 339.495911,247.192841 
	C332.952026,248.351562 327.401672,249.218735 321.902222,250.336304 
	C314.372345,251.866440 311.700562,254.835327 310.366669,263.428955 
z"/>
<path fill="#85B549" opacity="1.000000" stroke="none" 
	d="
M200.573090,153.388977 
	C207.234146,153.014984 213.502640,152.603775 219.766037,152.670532 
	C220.861328,152.682205 223.042694,154.965286 222.855392,155.758423 
	C219.109497,171.621063 215.807419,187.657898 200.675385,197.685715 
	C191.644608,203.670349 181.879791,202.013519 172.187256,201.712921 
	C171.400223,201.688522 170.059387,199.327103 170.032333,198.029617 
	C169.649536,179.671875 177.678665,159.563690 200.573090,153.388977 
z"/>
<path fill="#EEEBDC" opacity="1.000000" stroke="none" 
	d="
M107.014084,234.756805 
	C102.858566,234.742523 99.197319,234.808716 95.542084,234.689926 
	C92.280907,234.583908 90.111984,233.043503 90.119240,229.518417 
	C90.126472,226.005951 92.304184,224.345154 95.545486,224.325378 
	C110.346748,224.235123 125.148865,224.239441 139.950470,224.280884 
	C143.472610,224.290741 145.668243,226.032928 145.568893,229.770203 
	C145.474503,233.320755 143.173325,234.710403 139.942612,234.725449 
	C129.132248,234.775757 118.321541,234.752136 107.014084,234.756805 
z"/>
<path fill="#045040" opacity="1.000000" stroke="none" 
	d="
M53.549843,249.852554 
	C43.758381,251.623108 38.682148,248.097839 38.044586,238.635239 
	C37.693489,233.424423 37.984455,228.016922 39.021530,222.908325 
	C40.099426,217.598663 43.996605,215.278198 49.257545,215.336868 
	C54.515690,215.395523 58.774223,217.838959 59.459526,223.006897 
	C60.313896,229.449783 60.238068,236.152802 59.453499,242.608536 
	C59.142078,245.171036 55.852448,247.371582 53.549843,249.852554 
z"/>
<path fill="#055141" opacity="1.000000" stroke="none" 
	d="
M310.389038,263.036743 
	C311.700562,254.835327 314.372345,251.866440 321.902222,250.336304 
	C327.401672,249.218735 332.952026,248.351562 339.495911,247.192841 
	C338.544891,253.163223 338.298096,259.038696 336.584259,264.449524 
	C334.065552,272.401581 325.463074,276.184906 317.555878,273.659424 
	C312.611816,272.080353 310.562439,268.385986 310.389038,263.036743 
z"/>
</svg>